<svg xmlns="http://www.w3.org/2000/svg" width="769.628" height="218.127" viewBox="0 0 769.628 218.127">
  <g id="KARAMELO" transform="translate(-178.377 -508.358)">
    <text id="DOCERIA" transform="translate(309 716.485)" fill="#cd7a98" font-size="38" font-family="SegoeUI, Segoe UI" letter-spacing="1.48em"><tspan x="0" y="0">DOCERIA</tspan></text>
    <path id="LOGO" d="M831.536,448.07c-2.695,2.178-7.43,10.63-9.212,16.455-.882,2.875-5.823,16.982-21.58,61.619-6.654,18.854-8.007,20.537-31.69,39.45-23.384,18.674-42.269,25.7-51.983,19.331-3.315-2.171-4.343-7.944-1.555-8.726.857-.243,4.081-1.14,7.165-2,25.664-7.141,36.718-14.415,40.375-26.571,6.091-20.234-15.795-29.094-42.245-17.1-7.477,3.393-19.315,13.873-19.315,17.1,0,.916-.43,1.664-.956,1.664s-2.29,3.362-3.922,7.471c-3.355,8.449-10.954,15.256-25.051,22.449-11.028,5.626-11.782,2.667-3.689-14.49,13.035-27.627,15.427-34.3,13.256-36.992-5.252-6.527-20.113.393-38.864,18.091-15.424,14.555-19.178,14.929-13.714,1.368,5.474-13.586,5.648-14.094,5.648-16.621,0-10.231-21.748-3.48-34.269,10.636-7.779,8.773-21.808,18-21.808,14.353,0-1.34,5.147-13.057,8.848-20.141,3.972-7.6,3.408-8.555-5.041-8.555H574.53l-6.838,9.087c-12.873,17.1-46.569,45.743-53.815,45.743-4.785,0-4.467-5.041,1.159-18.343,4.178-9.882,4.128-11.156-.461-11.829-7.287-1.072-10.729.212-12.923,4.816-8.978,18.82-26.773,32.649-35.606,27.661-4.215-2.38-4.692-18.5-.785-26.428,7.3-14.8,38.095-25.216,54.609-18.465,3.421,1.4,3.427,1.393,3.408-3.863-.025-6.841-1.094-8.324-6.963-9.686-24.546-5.695-56.881,8.985-67.04,30.434-3.742,7.894-5.994,10.016-19.941,18.751-17.34,10.863-19.047,9.443-10.592-8.813,12.122-26.169,13.025-28.711,11.7-32.883-1.125-3.545-7.686-6.181-15.44-6.2-8.29-.022-9.234-.542-11.147-6.131-3.118-9.1-9.446-11.437-15.586-5.748-3.826,3.548-4.274,8.393-1.4,15.262,3,7.181-9.8,22.562-32.247,38.749-24.421,17.611-29.026,16.568-20.116-4.555,5.548-13.153,5.673-12.636-3.044-12.636h-7.4l-4.1,7.788c-13.081,24.848-38.413,34.609-38.413,14.8,0-23.627,22.929-40.213,50.5-36.528,11.748,1.57,11.77,1.558,11.122-4.957-.682-6.882-3.848-8.427-17.384-8.489-33.565-.162-60.438,22.49-60.438,50.946,0,25.2,14.867,33.771,36.409,20.991,6.374-3.782,9.094-3.52,10.225.984,3.885,15.49,52.8-14.455,84.984-52.03,4.545-5.3,5.377-5.776,8.67-4.9,6.374,1.695,4.561,8.67-8.038,30.9-18.057,31.867-2.539,41.145,31.733,18.976,13.5-8.739,14.929-8.951,16.67-2.483,3.723,13.82,20.431,18.11,35.079,9.007,7.816-4.86,8-4.851,10.6.629,4.2,8.851,21.219,2.661,49.027-17.826,8.284-6.1,9.053-4.773,4.393,7.611-8.8,23.384,2.4,20.375,31.786-8.545,33.521-32.986,35.335-33.372,22.935-4.888-10.39,23.87-10.673,26.923-2.5,26.923,3.879,0,5.109-1.044,29.64-25.141,16.216-15.935,25.225-23.11,27.353-21.8,1.234.763.688,2.234-6.455,17.437-8.278,17.611-10.122,26.244-6.278,29.359,6.676,5.4,20.9,1.012,39.512-12.2,9.586-6.8,11.6-6.832,14.795-.2,5.813,12.072,27.291,17.583,42.992,11.031,7.935-3.312,21.667-11.6,31.431-18.96,12.866-9.7,14.539-9.265,10.315,2.71-8.1,22.951,8.06,24.7,38.615,4.175,7.028-4.723,9.088-5.122,10.25-1.994,7.982,21.537,38.683,23.157,54.965,2.9,3.626-4.511,4.3-4.81,11.96-5.3,11.094-.707,14.434-3.735,14.434-13.085,0-7.05-.5-7.614-4.4-4.96-5.982,4.078-11.692,2.611-10.044-2.58a13.106,13.106,0,0,0-.371-6.075c-.878-3.059-.514-4.76,1.869-8.692,10.633-17.568-14.3-34.8-37.263-25.761-13.944,5.492-28.334,23.518-31.266,39.17-1.464,7.826-27.126,24.459-30.157,19.549-.713-1.149,5.7-23.247,9.533-32.864.545-1.371,2.228-6.137,3.735-10.592a185.838,185.838,0,0,1,8.019-18.692c5.464-10.972,12.125-25.96,17.72-39.877,4.371-10.87,4.626-31.154.4-31.154a10.263,10.263,0,0,1-2.754-.6c-.913-.33-2.863.371-4.337,1.558m-617.343,4.9c-3.614.564-2.748-.938-18.96,32.817-11.427,23.786-11.838,24.434-18.153,28.487-7.352,4.717-8.776,8.022-6.464,15.019,1.863,5.648,1.67,6.312-7.415,25.459-13.82,29.119-19.979,42.743-19.979,44.185,0,2.069,16.969,1.975,18.281-.1.539-.857,5.53-11.371,11.085-23.365,11.935-25.761,12.01-25.811,20.107-13.474,3.29,5.013,6.3,9.393,6.686,9.736s2.442,3.147,4.564,6.231,7.007,9.393,10.851,14.019l6.991,8.411H250.49l-16-15.888c-8.8-8.739-17.9-18.692-20.225-22.119s-4.682-6.418-5.237-6.645a1.79,1.79,0,0,1-1.006-1.536c0-.614-2.723-5.193-6.05-10.175-9.87-14.776-9.832-14.658-5.645-18.01,1.978-1.579,4.094-2.879,4.7-2.882,4.645-.025,40.553-27.777,57.208-44.213,20.079-19.814,22.051-26.823,7.552-26.823h-6.561l-7.383,9.658c-11.069,14.483-32.637,34.113-40.553,36.914-3.788,1.336-1.91-4.418,7.9-24.216,11.533-23.281,11.359-24.035-4.994-21.487m665.129,84.181c6.467,7.1,6.835,11.5,1.159,13.87-7.658,3.2-10.243,10.913-6.885,20.546,1.763,5.062-.648,9.075-7.577,12.611-21.468,10.951-27.951-23.281-8.063-42.556,8.4-8.14,16.484-9.832,21.365-4.471m-134.46,2.43c5.153,5.153-2.953,14.87-16.163,19.378-14.511,4.953-17.6,3.477-11.767-5.633,7.583-11.854,22.487-19.188,27.929-13.745" transform="translate(36.156 62.976)" fill="#cd7a98" stroke="#cd7a98" stroke-width="2" fill-rule="evenodd"/>
  </g>
</svg>
