<svg xmlns="http://www.w3.org/2000/svg" width="535.409" height="419.217" viewBox="0 0 535.409 419.217">
  <g id="KARAMELO" transform="translate(-83.429 -145.615)">
    <text id="DOCES_E_BOLOS" data-name="DOCES E BOLOS" transform="translate(169 557.833)" fill="#f18b8c" font-size="28" font-family="SegoeUI, Segoe UI" letter-spacing="0.481em"><tspan x="0" y="0">DOCES E BOLOS</tspan></text>
    <text id="DOCERIA" transform="translate(211 468.833)" fill="#f18b8c" font-size="22" font-family="SegoeUI, Segoe UI" letter-spacing="1.48em"><tspan x="0" y="0">DOCERIA</tspan></text>
    <path id="LOGO" d="M316.222,83.658c-9.088,2.028-15.441,24.437-10.934,38.563.369,1.16,1.086,3.532,1.594,5.271,3.906,13.426,10.217,19.446,14.169,13.521,11.611-17.407,14.635-32.459,9.892-49.256-1.961-6.94-7.137-9.79-14.721-8.1m7.2,5.716c7.186,4.755,3.939,34.251-4.793,43.547-2.53,2.694-2.73,2.527-5.77-4.813-3.172-7.656-4.31-24.575-2.093-31.085,1.819-5.336,9.311-9.864,12.656-7.65M265.828,99.848c-.8.8-.474,4.033.534,5.363,1.051,1.386,4.505,5.4,14.336,16.659,6.571,7.526,8.452,9.26,9.771,9.01,2.14-.406,2.01-4.463-.241-7.475-5.484-7.341-15.083-17.72-19.663-21.261-3.792-2.931-4-3.033-4.737-2.3m93.129,4.442c-12.741,10.994-23,26.716-17.427,26.716.819,0,9.233-8.7,14.846-15.355,1.16-1.374,3.927-4.523,6.15-7,7.543-8.394,4.879-11.651-3.569-4.365M254.114,121.361c0,2.437,9.258,9.645,12.389,9.645,1.755,0,2.723-2,2.028-4.187-.951-2.994-14.417-8.091-14.417-5.457m118.2-.155c-9.725,3.9-13.407,11.844-4,8.641,3.442-1.172,9.5-6.566,9.5-8.457,0-1.07-3.033-1.172-5.5-.184m-31.4,27.8a66.947,66.947,0,0,0-19.786,6.362l-5.027,2.546-4.813-1.943c-25-10.1-52.185-8.984-69.208,2.831-24.014,16.666-38.675,45.981-34.05,68.082,1.5,7.176,1.866,6.895-11.9,9.144-20.785,3.4-31.186,5.38-42.521,8.114-20.38,4.918-39.93,5.382-71.689,1.7a95.191,95.191,0,0,1-22.491-6.259c-5.011-2.263-9.84-3.692-9.84-2.91,0,11.382,53.992,21.907,87.151,16.989,12.025-1.783,26.918-4.428,41.29-7.329,26.195-5.289,32.768-5.335,35.709-.25,12.605,21.786,22.6,31.034,32.638,30.194,8-.671,10.572-2.583,10.5-7.808-.186-12.387-13.964-27.309-27.709-30.011-2.569-.506-3.818-.759-8.661-1.752-6.47-1.328-7.986-25.7-2.379-38.236,15.617-34.922,50.061-51.128,84.162-39.6,10.254,3.467,15.972,3.546,25.625.351,24.778-8.2,53.756-1.908,67.976,14.752,17.093,20.024,23.371,37.684,19.533,54.937-1.682,7.561-2.043,7.849-10.983,8.78-7.812.815-9.332,1.4-16.181,6.273-8.768,6.234-16.453,23.179-12.776,28.17,2.558,3.474,13.273,5.667,17.313,3.544,6.1-3.208,15.512-14.354,22.893-27.119,1.617-2.8,3.6-5.44,4.419-5.876,2.3-1.233,15.165-.1,24.828,2.179s10.694,2.476,34.439,6.459c27.76,4.656,48.914,4.393,75.865-.944,13.473-2.669,26.4-8.828,26.4-12.582,0-1.727-2.8-1.26-8.826,1.476-11.683,5.3-30.675,8.206-57.943,8.864-15.975.385-15.013.481-39.5-3.985-1.817-.332-7.984-1.745-13.705-3.138-18.882-4.6-18.79-4.586-29.561-5.208-11-.636-11.349-.9-9.407-7.181,3.607-11.664,2.409-22.224-4.108-36.236-2.361-5.078-4.389-8.1-13.087-19.514-5.491-7.206-16.886-15.443-25.927-18.743a77.3,77.3,0,0,0-27.059-5.208c-5.219-.119-10.437-.084-11.6.079m-3.866,33.629a62.148,62.148,0,0,0-20.338,8.269c-7.1,4.338-9.1,4.505-14.336,1.2-10.156-6.41-13.956-7.619-24.076-7.659-23.677-.093-37.566,36.56-20.37,53.754a13.838,13.838,0,0,1,2.395,5.3c4.644,19.266,17.537,37.357,40.88,57.36,3.9,3.34,15.239,11.477,16,11.477,1.478,0,20.981-17.037,31.8-27.772,4.229-4.2,4.744-2.323,1.434,5.219-3.711,8.453-3.483,14.58.706,18.962,7.257,7.592,14.515-.025,11.98-12.574-2.4-11.869-2.434-12.433-1.19-18.817,1.179-6.048,1.866-7.664,10.145-23.87,18.629-36.466-1.523-77.231-35.024-70.847M280.47,218.86c.529,1.666,1.942,1.822,3.163.351,3.642-4.389,19.8,3.721,27.337,13.719,6.521,8.655,7.248,14.679,2.752,22.828-4.7,8.513-2.534,18.95,4.509,21.768,8.859,3.546,11.939-3.941,7.483-18.193-6.173-19.734,5.763-41.43,17.084-31.058,10.2,9.346,17.314,34.052,12.068,41.91-3.605,5.4-6.988,7.584-7.4,4.779-.329-2.228-1.718-2.34-3.089-.248-1.147,1.75-1.133,1.894.293,3.412l1.49,1.587L341,284.844c-3.975,3.95-5.549,5.078-6.847,4.908-2.648-.348-5.161,1.808-4.974,4.266.292,3.809-10.752,12.064-13.057,9.759-.636-.636-1.225-.618-2.534.083-3.013,1.613-13.649-6.744-12.814-10.07a7.31,7.31,0,0,0-.323-3.718l-.761-1.982-1.631,2.031-1.629,2.031-2-1.427c-4.827-3.439-10.191-10.045-9.757-12.018.453-2.065-1.5-5.45-2.188-3.8-1.49,3.574-9.738-6.7-9.738-12.124,0-2.548-.183-2.832-1.943-3.034-3.857-.445-8.647-13.921-5.788-16.293,1.66-1.379,1.272-3.467-.792-4.25-4.625-1.759,2.542-18.414,9.049-21.029,3.017-1.212,6.716-.863,7.206.68m-10.753,9.277c-1.1,1.1-1.082,2.673.035,2.662,2.311-.026,4.041-.961,4.041-2.182,0-1.53-2.706-1.85-4.076-.48m21.788,2.109c-1.374,1.374-1.051,4.076.487,4.076,1.674,0,2.4-1.79,1.453-3.565-.854-1.6-.854-1.6-1.94-.511m36.844,13.593c-.826,2.152-.462,5.278.664,5.711,1.885.724,2.738-.861,2.012-3.739-.713-2.834-1.986-3.771-2.676-1.971m-47.856,1.685c-1.218,2.356-.741,4.433.944,4.113.8-.151,1.207-1.117,1.358-3.2.253-3.488-.763-3.894-2.3-.917m-46,4.126c1.708,1.211,4.844,3.425,6.97,4.92,11.419,8.03,10.934,17.706-.694,13.844-5.763-1.915-18.354-17.778-16.5-20.786.944-1.525,6.87-.353,10.219,2.022m172.839-1.239c0,2.516-7.682,14.018-11.393,17.058-5.066,4.152-13.909,5.122-13.909,1.525,0-4.338,8.009-13.384,14.9-16.833,4.871-2.437,10.4-3.367,10.4-1.75M301.184,249.82c-.951,1.775-.436,3.479,1.051,3.479.724,0,1.077-.68,1.077-2.066,0-2.616-1.095-3.342-2.128-1.413m-122.625,3.149c-5.025.9-13.407,2.131-18.625,2.734l-15.814,1.824c-3.479.4-10.6,1.223-15.814,1.831s-18.5,1.362-29.519,1.68c-23.636.68-20.2-.107-20.688,4.737-2.151,21.382-5.436,26.391-18.319,27.931-10.852,1.295-12.466,1.808-11.936,3.788.269,1.012.6,9.116.743,18.007s.573,19.328.961,23.194c.622,6.176,1.01,11.7,2.451,34.79.181,2.9.692,7.8,1.135,10.894a104.768,104.768,0,0,1,.348,16.868c-.64,15.687.917,18.613,9.917,18.632,12.275.028,26.954,13.935,26.954,25.537,0,3.843,1.016,4.184,12.011,4.047,13.718-.17,15.968-.552,32.97-5.568,6.747-1.991,22.617-5.507,32.43-7.186,2.182-.372,9.457-1.943,16.165-3.491,37.463-8.638,50.639-10.217,80.023-9.585,27.254.585,34.036,2,39.719,8.29,3.356,3.714,3.14,4.957-1.766,10.2-4.3,4.6-5.029,6.422-3.172,7.963,1.836,1.523,4.549.105,9.613-5.031,5.712-5.791,5.175-5.809,13.238.42,5.761,4.452,5.842,4.481,6.821,2.333.945-2.075.091-4.275-2.973-7.668-5.02-5.556.023-11.393,12.317-14.255,18.713-4.358,53.322-4.335,73.655.051,29.686,6.4,40.817,8.694,51.1,10.527,11.9,2.123,22.564,4.338,24.951,5.185,12.271,4.351,24.116,6.661,39.657,7.736,11.741.812,12.09.624,13.385-7.2,1.789-10.8,10.959-19.033,24.2-21.739,11.925-2.437,12.428-3.207,11.76-18.019a180.413,180.413,0,0,1,.265-19.1c.4-4.832,1.04-13.53,1.416-19.328s.975-14.021,1.33-18.274c2.513-30.036,2.962-37.3,2.674-43.124-.376-7.6-.355-7.571-6.816-8.2-16.885-1.636-20.965-5.818-22.621-23.179-1.01-10.609.3-9.71-14.4-9.859-6.905-.07-16.033-.487-20.286-.926s-11.368-1.133-15.814-1.541-10.771-1.03-14.057-1.381-9.295-.98-13.354-1.4c-11.482-1.186-18.247-2.014-35.314-4.321-6.94-.937-11.8-.242-15.947,2.282-3.516,2.137-1.834,2.709,8.037,2.738a136.3,136.3,0,0,1,27.484,3.112c2.665.587,10.855,1.715,18.2,2.506s17.69,1.91,22.99,2.486,15.578,1.23,22.842,1.451,14,.506,14.963.636,3.259.26,5.1.292l3.338.058v2.683c0,17.114,11.031,29.647,26.094,29.647,5.073,0,5.122.183,4.147,15.169-.476,7.313-1.474,17.091-2.216,21.73s-1.984,19.345-2.757,32.682-1.479,25.355-1.566,26.708a93.062,93.062,0,0,0,.436,9.335c.752,8.689.578,8.94-6.127,8.931-12.324-.018-20.874,6.591-28.568,22.076l-3.177,6.4-4.906.64c-7.069.921-16.531-.43-26.342-3.762-4.445-1.511-11.245-3.423-15.111-4.252-12.263-2.629-19.6-4.27-22.352-5-1.471-.39-5.108-1.156-8.083-1.7s-10-1.968-15.6-3.156c-29.667-6.294-36.614-7.053-64.309-7.032-30.6.023-36.488.933-52.8,8.151-10.316,4.565-7.888,4.567-17.328-.018-18.362-8.917-59.806-11.3-93.28-5.37a188.877,188.877,0,0,0-18.976,4.219c-2.423.759-8.661,1.815-23.193,3.924a245.446,245.446,0,0,0-27.586,5.93c-1.45.413-3.664,1.035-4.92,1.383s-5.921,1.769-10.367,3.159c-18.553,5.8-30.359,5.257-32.64-1.5-4.507-13.359-15.153-22.6-27.8-24.144-8.539-1.04-8.007-.135-8.125-13.821-.169-19.678-1.555-48.567-2.722-56.748-1.868-13.1-2.5-19.451-2.5-25.3a101.485,101.485,0,0,0-.824-11.484c-.949-6.788-.754-7.107,4.331-7.139,14.482-.086,26-12.01,26-26.908,0-3.987.662-4.484,6.677-5.025,2.706-.242,7.924-.743,11.6-1.11q10.21-1.023,46.036-3.867c13.551-1.074,14.826-1.244,29.168-3.878a145.433,145.433,0,0,1,18.274-1.822c13.807-.459,15.821-1,11.421-3.049-6.735-3.142-14.651-3.442-27.938-1.06m112.212,10.665c-1.13,2.11-1.016,3.721.264,3.721,1.453,0,2.066-1.845,1.232-3.714l-.682-1.529-.814,1.522m50.555.091c-.559,1.045-.478,1.587.334,2.261,1.313,1.088,2.664.011,2.307-1.836-.35-1.8-1.783-2.028-2.641-.425m171.366,9.68c-1.71,2.061,7.919,5.2,15.93,5.2,2.395,0,4.735,2.065,5.572,4.918,1.864,6.354,6.227,11.85,9.878,12.442,2.848.462,2.857.525-1.091-7.522-6.6-13.457-7.446-14.914-9.01-15.527-3.043-1.193-20.208-.8-21.278.492M93.557,278.054a6.036,6.036,0,0,0-1.095,2.723c0,2.4-2.284,7.492-5.707,12.707-3.618,5.514-4.245,8.423-1.912,8.868,2.541.485,9.963-10.061,11.412-16.214,1.03-4.373,2.277-4.813,13.224-4.663,10.857.149,12.844-.518,10.885-3.655-1.388-2.223-25.233-2.014-26.808.234m232.987,1.878c-.515.963-.459,1.543.2,2.091,1.128.936,2.569-.274,2.569-2.158,0-1.669-1.868-1.624-2.773.067m-24.987,1.472c-.738,2.325.432,3.412,2.354,2.195.743-.471.775-.931.151-2.1-1-1.873-1.929-1.908-2.506-.1m188.254,7.575c-1.52,1.228-4.191,6-5.2,9.281-.5,1.622-3.284,9.578-12.171,34.753-3.753,10.634-4.516,11.583-17.873,22.25-13.189,10.532-23.84,14.492-29.319,10.9-1.87-1.225-2.449-4.481-.877-4.922.483-.137,2.3-.643,4.041-1.126,14.475-4.027,20.709-8.13,22.772-14.986,3.435-11.412-8.908-16.409-23.826-9.643-4.217,1.913-10.894,7.824-10.894,9.645,0,.517-.242.938-.539.938s-1.291,1.9-2.212,4.213c-1.892,4.765-6.178,8.6-14.129,12.662-6.22,3.173-6.645,1.5-2.08-8.172,7.352-15.582,8.7-19.345,7.476-20.864-2.962-3.681-11.344.221-21.92,10.2-8.7,8.209-10.817,8.42-7.735.771s3.186-7.949,3.186-9.374c0-5.77-12.266-1.963-19.328,6-4.387,4.948-12.3,10.154-12.3,8.095,0-.756,2.9-7.364,4.99-11.36,2.24-4.287,1.922-4.825-2.843-4.825h-4.177L341,338.547c-7.26,9.645-26.265,25.8-30.352,25.8-2.7,0-2.52-2.843.654-10.346,2.356-5.573,2.328-6.292-.26-6.672-4.11-.6-6.051.119-7.288,2.716-5.064,10.615-15.1,18.414-20.082,15.6-2.377-1.342-2.646-10.432-.443-14.905,4.115-8.348,21.486-14.222,30.8-10.414,1.929.789,1.933.785,1.922-2.179-.014-3.859-.617-4.695-3.927-5.463-13.844-3.212-32.081,5.067-37.811,17.165-2.11,4.452-3.381,5.649-11.247,10.576-9.78,6.127-10.743,5.326-5.974-4.971,6.837-14.759,7.346-16.193,6.6-18.546-.634-2-4.335-3.486-8.708-3.5-4.676-.012-5.208-.306-6.287-3.458-1.759-5.134-5.327-6.45-8.791-3.242-2.158,2-2.411,4.734-.791,8.608,1.692,4.05-5.528,12.725-18.188,21.855-13.774,9.933-16.371,9.344-11.345-2.569,3.129-7.418,3.2-7.127-1.717-7.127h-4.175l-2.314,4.393c-7.378,14.014-21.665,19.519-21.665,8.348,0-13.326,12.932-22.68,28.482-20.6,6.626.886,6.638.879,6.273-2.8-.385-3.881-2.17-4.753-9.8-4.788-18.931-.091-34.087,12.684-34.087,28.734,0,14.211,8.385,19.047,20.535,11.839,3.595-2.133,5.129-1.986,5.767.555,2.191,8.736,29.779-8.153,47.931-29.345,2.564-2.991,3.033-3.258,4.89-2.764,3.6.956,2.572,4.89-4.533,17.428-10.184,17.973-1.432,23.206,17.9,10.7,7.615-4.929,8.42-5.048,9.4-1.4,2.1,7.794,11.523,10.214,19.785,5.08,4.408-2.741,4.512-2.736,5.978.355,2.369,4.992,11.967,1.5,27.651-10.054,4.672-3.442,5.106-2.692,2.478,4.293-4.966,13.189,1.351,11.491,17.927-4.82,18.906-18.6,19.929-18.822,12.936-2.757-5.86,13.463-6.02,15.185-1.407,15.185,2.188,0,2.882-.589,16.717-14.18,9.146-8.987,14.227-13.034,15.427-12.293.7.431.388,1.26-3.641,9.834-4.669,9.933-5.709,14.8-3.541,16.559,3.765,3.047,11.786.571,22.285-6.881,5.407-3.837,6.543-3.853,8.344-.112,3.279,6.809,15.392,9.917,24.248,6.222,4.475-1.868,12.22-6.54,17.727-10.694,7.257-5.473,8.2-5.226,5.818,1.529-4.567,12.944,4.546,13.93,21.779,2.354,3.964-2.664,5.125-2.889,5.781-1.125,4.5,12.147,21.818,13.06,31,1.634,2.045-2.544,2.423-2.713,6.745-2.987,6.257-.4,8.141-2.107,8.141-7.38,0-3.976-.283-4.294-2.479-2.8-3.374,2.3-6.594,1.472-5.665-1.455a7.391,7.391,0,0,0-.209-3.426c-.5-1.725-.29-2.685,1.054-4.9,6-9.908-8.063-19.628-21.016-14.529-7.865,3.1-15.981,13.264-17.634,22.092-.826,4.414-15.3,13.795-17.009,11.026-.4-.648,3.214-13.111,5.377-18.535.308-.773,1.256-3.461,2.107-5.974a104.807,104.807,0,0,1,4.523-10.543c3.082-6.188,6.839-14.642,9.994-22.491,2.465-6.13,2.609-17.571.223-17.571a5.788,5.788,0,0,1-1.553-.339,3.269,3.269,0,0,0-2.446.879m-348.183,2.762c-2.038.318-1.55-.529-10.694,18.509-6.445,13.415-6.677,13.781-10.239,16.067-4.147,2.66-4.95,4.524-3.646,8.471,1.051,3.186.942,3.56-4.182,14.359-7.794,16.423-11.268,24.107-11.268,24.921,0,1.167,9.571,1.114,10.311-.058.3-.483,3.119-6.413,6.252-13.178,6.731-14.529,6.774-14.557,11.34-7.6,1.855,2.827,3.553,5.3,3.771,5.491s1.378,1.775,2.574,3.514,3.952,5.3,6.12,7.907l3.943,4.744H162.1l-9.024-8.961c-4.962-4.929-10.1-10.542-11.407-12.475a20.614,20.614,0,0,0-2.954-3.748,1.01,1.01,0,0,1-.568-.866,37.052,37.052,0,0,0-3.412-5.739c-5.566-8.334-5.545-8.267-3.184-10.158a8.516,8.516,0,0,1,2.651-1.625c2.62-.014,22.872-15.666,32.265-24.936,11.324-11.175,12.437-15.128,4.259-15.128h-3.7l-4.164,5.447c-6.243,8.169-18.407,19.24-22.872,20.82-2.137.754-1.077-2.492,4.454-13.658,6.5-13.131,6.406-13.556-2.817-12.119M314,292.086c-1.195,1.195-1.06,2.449.32,2.978,1.465.562,2.551-.459,2.233-2.1-.307-1.583-1.455-1.979-2.553-.88M516.763,339.22c3.648,4,3.855,6.485.654,7.823-4.319,1.806-5.777,6.155-3.883,11.588.995,2.855-.365,5.118-4.273,7.113-12.108,6.176-15.765-13.131-4.547-24,4.737-4.591,9.3-5.545,12.05-2.521m-75.836,1.371c2.906,2.906-1.666,8.387-9.116,10.929-8.184,2.794-9.924,1.961-6.637-3.177,4.277-6.686,12.683-10.822,15.752-7.752M90.53,411.2c-1.5.6-.98,2.354,1.571,5.336a39.845,39.845,0,0,1,4.96,9.339c3.345,8.633,4.672,9.834,10.746,9.727,8.43-.149,18.391-4.864,18.391-8.7,0-2.328-2.054-2.808-5.946-1.39-4.741,1.727-13.292,4.2-14.526,4.2-.571,0-2.316-2.889-4.112-6.8Q95.361,409.271,90.53,411.2m441.546,4.345a20.924,20.924,0,0,0-4.217,3.841c-1.154,1.4-3.1,3.743-4.333,5.2l-2.235,2.653-7.956-1.594c-12.191-2.439-19.555-1.959-19.555,1.276,0,.675.107.706,15.814,4.481,16.3,3.918,15.336,4.259,23.243-8.209,1.906-3,3.781-5.937,4.168-6.521,1.509-2.274-1.806-3.033-4.929-1.128" transform="translate(36.156 62.976)" fill="#f18b8c" stroke="#f18b8c" stroke-width="1" fill-rule="evenodd"/>
  </g>
</svg>
