<svg xmlns="http://www.w3.org/2000/svg" width="949.53" height="742.404" viewBox="0 0 949.53 742.404">
  <g id="KARAMELO" transform="translate(-82.94 -145.081)">
    <text id="DOCES_E_BOLOS" data-name="DOCES E BOLOS" transform="translate(235 875.485)" fill="#cd7a98" font-size="49" font-family="SegoeUI, Segoe UI" letter-spacing="0.481em"><tspan x="0" y="0">DOCES E BOLOS</tspan></text>
    <text id="DOCERIA" transform="translate(309 716.485)" fill="#cd7a98" font-size="38" font-family="SegoeUI, Segoe UI" letter-spacing="1.48em"><tspan x="0" y="0">DOCERIA</tspan></text>
    <path id="LOGO" d="M523.755,84.026c-16.113,3.6-27.378,43.329-19.387,68.373.654,2.056,1.925,6.262,2.826,9.346,6.926,23.8,18.116,34.478,25.122,23.973,20.586-30.864,25.948-57.55,17.54-87.333-3.477-12.306-12.655-17.359-26.1-14.359M536.519,94.16c12.742,8.43,6.985,60.728-8.5,77.211-4.486,4.776-4.841,4.48-10.231-8.533-5.623-13.574-7.642-43.572-3.71-55.114,3.224-9.461,16.508-17.49,22.44-13.564M434.406,112.731c-1.414,1.411-.841,7.15.947,9.508,1.863,2.458,7.988,9.574,25.418,29.537,11.651,13.343,14.985,16.418,17.325,15.976,3.794-.72,3.564-7.913-.427-13.253-9.723-13.016-26.742-31.419-34.864-37.7-6.723-5.2-7.1-5.377-8.4-4.072m165.121,7.876c-22.59,19.493-40.774,47.369-30.9,47.369,1.452,0,16.371-15.43,26.322-27.225,2.056-2.436,6.963-8.019,10.9-12.405,13.374-14.882,8.651-20.658-6.327-7.739M413.636,150.875c0,4.321,16.415,17.1,21.967,17.1,3.112,0,4.829-3.542,3.6-7.424-1.685-5.309-25.562-14.346-25.562-9.676m209.574-.274c-17.244,6.913-23.77,21-7.1,15.321,6.1-2.078,16.848-11.642,16.848-14.994,0-1.9-5.377-2.078-9.748-.327M567.536,199.9a118.7,118.7,0,0,0-35.082,11.281l-8.913,4.514-8.533-3.446c-44.329-17.9-92.527-15.929-122.708,5.019-42.578,29.549-68.573,81.526-60.373,120.711,2.664,12.723,3.309,12.225-21.1,16.212-36.852,6.022-55.295,9.539-75.392,14.387-36.135,8.72-70.8,9.542-127.107,3.022-10.857-1.259-29.7-6.5-39.877-11.1-8.885-4.013-17.446-6.545-17.446-5.159,0,20.181,95.729,38.842,154.523,30.123,21.322-3.162,47.728-7.851,73.208-12.994,46.444-9.377,58.1-9.458,63.314-.442,22.35,38.628,40.076,55.024,57.868,53.535,14.191-1.19,18.745-4.58,18.608-13.845-.33-21.963-24.758-48.419-49.129-53.211-4.555-.9-6.77-1.346-15.356-3.106-11.471-2.355-14.159-45.569-4.218-67.794,27.689-61.918,88.76-90.651,149.223-70.211,18.181,6.147,28.319,6.287,45.435.623,43.933-14.533,95.312-3.383,120.524,26.157,30.306,35.5,41.438,66.816,34.634,97.405-2.981,13.405-3.623,13.916-19.474,15.568-13.851,1.446-16.546,2.489-28.69,11.122-15.546,11.053-29.172,41.1-22.652,49.946,4.536,6.159,23.534,10.047,30.7,6.284,10.823-5.689,27.5-25.45,40.59-48.083,2.866-4.96,6.39-9.645,7.835-10.418,4.081-2.187,26.889-.184,44.02,3.863s18.96,4.39,61.061,11.452c49.22,8.256,86.726,7.788,134.512-1.673,23.889-4.732,46.8-15.652,46.8-22.309,0-3.062-4.957-2.234-15.648,2.617-20.714,9.4-54.388,14.549-102.736,15.717-28.325.682-26.618.854-70.034-7.066-3.221-.589-14.156-3.094-24.3-5.564-33.478-8.159-33.316-8.131-52.413-9.234-19.512-1.128-20.122-1.6-16.68-12.733,6.4-20.68,4.271-39.4-7.284-64.248-4.187-9-7.782-14.368-23.2-34.6-9.736-12.776-29.939-27.381-45.97-33.232-17.265-6.3-30.406-8.832-47.977-9.234-9.253-.212-18.505-.15-20.561.14m-6.854,59.625c-11.521,2.2-23.9,7.231-36.06,14.661-12.583,7.692-16.131,7.988-25.418,2.125-18.007-11.365-24.745-13.508-42.687-13.58-41.98-.165-66.607,64.822-36.117,95.309,1.436,1.436,3.346,5.664,4.246,9.4,8.234,34.16,31.095,66.236,72.482,101.7,6.913,5.922,27.02,20.35,28.362,20.35,2.62,0,37.2-30.207,56.376-49.242,7.5-7.443,8.411-4.119,2.542,9.253-6.58,14.988-6.175,25.851,1.252,33.621,12.867,13.462,25.736-.044,21.241-22.294-4.252-21.044-4.315-22.044-2.109-33.363,2.09-10.723,3.309-13.589,17.988-42.322,33.029-64.656-2.7-136.933-62.1-125.615M460.367,323.745c.938,2.953,3.443,3.231,5.608.623,6.458-7.782,35.11,6.6,48.469,24.325,11.561,15.346,12.851,26.026,4.879,40.475-8.327,15.094-4.492,33.6,7.994,38.6,15.708,6.287,21.169-6.988,13.268-32.257C529.64,360.518,550.8,322.05,570.875,340.44c18.085,16.571,30.7,60.376,21.4,74.308-6.393,9.57-12.39,13.446-13.122,8.474-.583-3.95-3.047-4.15-5.477-.439-2.034,3.1-2.009,3.358.52,6.05l2.642,2.813-9.153,9.091c-7.047,7-9.838,9-12.141,8.7-4.695-.617-9.15,3.206-8.82,7.564.517,6.754-19.063,21.39-23.15,17.3-1.128-1.128-2.171-1.1-4.492.146-5.343,2.86-24.2-11.957-22.72-17.854a12.961,12.961,0,0,0-.573-6.592l-1.349-3.514-2.891,3.6-2.888,3.6-3.555-2.53c-8.558-6.1-18.069-17.811-17.3-21.309.8-3.661-2.657-9.664-3.879-6.729-2.642,6.337-17.265-11.873-17.265-21.5,0-4.517-.324-5.022-3.446-5.38-6.838-.788-15.331-24.683-10.262-28.889,2.944-2.445,2.256-6.147-1.4-7.536-8.2-3.118,4.508-32.649,16.044-37.285,5.349-2.15,11.907-1.53,12.776,1.206M441.3,340.194c-1.953,1.953-1.919,4.739.062,4.72,4.1-.047,7.165-1.7,7.165-3.869,0-2.714-4.8-3.281-7.228-.851m38.631,3.738c-2.436,2.436-1.863,7.228.863,7.228,2.969,0,4.262-3.175,2.576-6.321-1.514-2.832-1.514-2.832-3.439-.907m65.326,24.1c-1.464,3.816-.819,9.359,1.178,10.125,3.343,1.284,4.854-1.527,3.567-6.629-1.265-5.025-3.52-6.686-4.745-3.5m-84.85,2.988c-2.159,4.178-1.315,7.86,1.673,7.293,1.411-.268,2.14-1.981,2.408-5.667.449-6.184-1.352-6.9-4.081-1.626m-81.56,7.315c3.028,2.147,8.589,6.072,12.359,8.723,20.247,14.237,19.387,31.394-1.231,24.546-10.218-3.4-32.543-31.521-29.247-36.855,1.673-2.7,12.181-.626,18.119,3.586m306.45-2.2c0,4.461-13.62,24.854-20.2,30.244-8.982,7.362-24.661,9.081-24.661,2.7,0-7.692,14.2-23.73,26.422-29.845,8.636-4.321,18.44-5.969,18.44-3.1m-188.2,2.5c-1.685,3.147-.773,6.168,1.863,6.168,1.284,0,1.91-1.206,1.91-3.664,0-4.639-1.941-5.925-3.773-2.5M279.675,384.22c-8.91,1.6-23.77,3.779-33.023,4.848s-21.87,2.523-28.038,3.234-18.786,2.168-28.038,3.246-32.8,2.414-52.338,2.978c-41.908,1.206-35.814-.19-36.68,8.4-3.813,37.911-9.639,46.793-32.481,49.522-19.241,2.3-22.1,3.206-21.163,6.717.477,1.794,1.072,16.163,1.318,31.926s1.016,34.269,1.7,41.123c1.1,10.951,1.791,20.736,4.346,61.684.321,5.14,1.227,13.832,2.013,19.315.916,6.383,1.137,17.138.617,29.908-1.134,27.814,1.626,33,17.583,33.035,21.764.05,47.79,24.708,47.79,45.279,0,6.813,1.8,7.418,21.3,7.175,24.322-.3,28.313-.978,58.457-9.873,11.963-3.53,40.1-9.763,57.5-12.742,3.869-.66,16.767-3.446,28.661-6.19,66.423-15.315,89.785-18.116,141.884-16.994,48.323,1.037,60.348,3.545,70.423,14.7,5.95,6.586,5.567,8.788-3.131,18.088-7.626,8.153-8.916,11.387-5.623,14.119,3.256,2.7,8.066.187,17.044-8.919,10.128-10.268,9.175-10.3,23.471.745,10.215,7.894,10.359,7.944,12.094,4.137,1.676-3.679.162-7.58-5.271-13.6-8.9-9.851.041-20.2,21.839-25.275,33.179-7.726,94.542-7.686,130.593.09,52.634,11.349,72.37,15.415,90.6,18.664,21.094,3.763,40.008,7.692,44.238,9.193,21.758,7.714,42.759,11.81,70.314,13.717,20.817,1.439,21.437,1.106,23.733-12.767,3.172-19.144,19.431-33.746,42.914-38.543,21.144-4.321,22.035-5.686,20.851-31.948a319.893,319.893,0,0,1,.47-33.87c.714-8.567,1.844-23.988,2.511-34.269s1.729-24.861,2.358-32.4c4.455-53.254,5.252-66.136,4.741-76.461-.667-13.468-.629-13.424-12.085-14.533-29.939-2.9-37.173-10.315-40.107-41.1-1.791-18.811.536-17.216-25.527-17.48-12.243-.125-28.428-.863-35.967-1.642s-20.156-2.009-28.038-2.732-19.1-1.826-24.923-2.449-16.48-1.738-23.677-2.48c-20.359-2.1-32.353-3.57-62.613-7.661-12.306-1.66-20.917-.43-28.275,4.047-6.234,3.788-3.253,4.8,14.25,4.854a241.666,241.666,0,0,1,48.731,5.517c4.726,1.041,19.247,3.041,32.269,4.443s31.365,3.386,40.761,4.408,27.621,2.181,40.5,2.573,24.817.9,26.531,1.128,5.779.461,9.035.517l5.919.1v4.757c0,30.344,19.558,52.566,46.266,52.566,8.994,0,9.081.324,7.352,26.9-.844,12.966-2.614,30.3-3.929,38.528s-3.517,34.3-4.888,57.946-2.623,44.955-2.776,47.354a165,165,0,0,0,.773,16.552c1.333,15.406,1.025,15.851-10.863,15.836-21.851-.031-37.011,11.686-50.653,39.142l-5.633,11.34-8.7,1.134c-12.533,1.632-29.309-.763-46.706-6.67-7.882-2.679-19.938-6.069-26.792-7.539-21.742-4.661-34.749-7.57-39.631-8.863-2.607-.692-9.056-2.05-14.331-3.019s-17.723-3.489-27.661-5.6c-52.6-11.159-64.918-12.505-114.023-12.468-54.257.04-64.694,1.654-93.617,14.452-18.29,8.094-13.985,8.1-30.724-.031-32.556-15.81-106.038-20.041-165.389-9.521-13.181,2.337-27.151,5.443-33.646,7.48-4.3,1.346-15.356,3.218-41.123,6.957a435.185,435.185,0,0,0-48.911,10.514c-2.57.732-6.5,1.835-8.723,2.452s-10.5,3.137-18.381,5.6c-32.9,10.284-53.827,9.321-57.871-2.661-7.991-23.686-26.867-40.076-49.3-42.808-15.141-1.844-14.2-.24-14.406-24.506-.3-34.889-2.757-86.112-4.826-100.617-3.312-23.219-4.424-34.487-4.433-44.861a179.937,179.937,0,0,0-1.461-20.362c-1.682-12.035-1.337-12.6,7.679-12.658,25.677-.153,46.108-21.294,46.108-47.709,0-7.069,1.174-7.95,11.838-8.91,4.8-.43,14.05-1.318,20.561-1.969q18.1-1.813,81.623-6.857c24.026-1.9,26.288-2.206,51.715-6.876a257.853,257.853,0,0,1,32.4-3.231c24.481-.813,28.051-1.766,20.25-5.405-11.941-5.57-25.976-6.1-49.534-1.879m198.957,18.91c-2,3.742-1.8,6.6.467,6.6,2.576,0,3.664-3.271,2.184-6.586l-1.209-2.71-1.442,2.7m89.636.162c-.991,1.854-.847,2.813.592,4.009,2.327,1.928,4.723.019,4.091-3.256-.62-3.187-3.162-3.6-4.682-.754m303.839,17.163c-3.031,3.654,14.041,9.225,28.244,9.215,4.246,0,8.4,3.661,9.879,8.72,3.305,11.265,11.041,21.01,17.515,22.06,5.05.819,5.066.932-1.935-13.337-11.708-23.861-13.2-26.443-15.976-27.531-5.4-2.115-35.83-1.411-37.727.872M128.963,428.7a10.7,10.7,0,0,0-1.941,4.829c0,4.262-4.05,13.284-10.119,22.53-6.415,9.776-7.527,14.935-3.39,15.723,4.5.86,17.664-17.839,20.234-28.749,1.826-7.754,4.038-8.533,23.446-8.268,19.25.265,22.773-.919,19.3-6.48-2.461-3.941-44.74-3.57-47.531.414m413.1,3.33c-.913,1.707-.813,2.735.361,3.707,2,1.66,4.555-.486,4.555-3.826,0-2.96-3.312-2.879-4.916.118m-44.3,2.611c-1.308,4.122.766,6.05,4.175,3.891,1.318-.835,1.374-1.651.268-3.72-1.776-3.321-3.421-3.383-4.443-.171m333.781,13.43c-2.695,2.178-7.43,10.63-9.212,16.455-.882,2.875-5.823,16.982-21.58,61.619-6.654,18.854-8.007,20.537-31.69,39.45-23.384,18.674-42.269,25.7-51.983,19.331-3.315-2.171-4.343-7.944-1.555-8.726.857-.243,4.081-1.14,7.165-2,25.664-7.141,36.718-14.415,40.375-26.571,6.091-20.234-15.795-29.094-42.245-17.1-7.477,3.393-19.315,13.873-19.315,17.1,0,.916-.43,1.664-.956,1.664s-2.29,3.362-3.922,7.471c-3.355,8.449-10.954,15.256-25.051,22.449-11.028,5.626-11.782,2.667-3.689-14.49,13.035-27.627,15.427-34.3,13.256-36.992-5.252-6.527-20.113.393-38.864,18.091-15.424,14.555-19.178,14.929-13.714,1.368,5.474-13.586,5.648-14.094,5.648-16.621,0-10.231-21.748-3.48-34.269,10.636-7.779,8.773-21.808,18-21.808,14.353,0-1.34,5.147-13.057,8.848-20.141,3.972-7.6,3.408-8.555-5.041-8.555H574.53l-6.838,9.087c-12.873,17.1-46.569,45.743-53.815,45.743-4.785,0-4.467-5.041,1.159-18.343,4.178-9.882,4.128-11.156-.461-11.829-7.287-1.072-10.729.212-12.923,4.816-8.978,18.82-26.773,32.649-35.606,27.661-4.215-2.38-4.692-18.5-.785-26.428,7.3-14.8,38.095-25.216,54.609-18.465,3.421,1.4,3.427,1.393,3.408-3.863-.025-6.841-1.094-8.324-6.963-9.686-24.546-5.695-56.881,8.985-67.04,30.434-3.742,7.894-5.994,10.016-19.941,18.751-17.34,10.863-19.047,9.443-10.592-8.813,12.122-26.169,13.025-28.711,11.7-32.883-1.125-3.545-7.686-6.181-15.44-6.2-8.29-.022-9.234-.542-11.147-6.131-3.118-9.1-9.446-11.437-15.586-5.748-3.826,3.548-4.274,8.393-1.4,15.262,3,7.181-9.8,22.562-32.247,38.749-24.421,17.611-29.026,16.568-20.116-4.555,5.548-13.153,5.673-12.636-3.044-12.636h-7.4l-4.1,7.788c-13.081,24.848-38.413,34.609-38.413,14.8,0-23.627,22.929-40.213,50.5-36.528,11.748,1.57,11.77,1.558,11.122-4.957-.682-6.882-3.848-8.427-17.384-8.489-33.565-.162-60.438,22.49-60.438,50.946,0,25.2,14.867,33.771,36.409,20.991,6.374-3.782,9.094-3.52,10.225.984,3.885,15.49,52.8-14.455,84.984-52.03,4.545-5.3,5.377-5.776,8.67-4.9,6.374,1.695,4.561,8.67-8.038,30.9-18.057,31.867-2.539,41.145,31.733,18.976,13.5-8.739,14.929-8.951,16.67-2.483,3.723,13.82,20.431,18.11,35.079,9.007,7.816-4.86,8-4.851,10.6.629,4.2,8.851,21.219,2.661,49.027-17.826,8.284-6.1,9.053-4.773,4.393,7.611-8.8,23.384,2.4,20.375,31.786-8.545,33.521-32.986,35.335-33.372,22.935-4.888-10.39,23.87-10.673,26.923-2.5,26.923,3.879,0,5.109-1.044,29.64-25.141,16.216-15.935,25.225-23.11,27.353-21.8,1.234.763.688,2.234-6.455,17.437-8.278,17.611-10.122,26.244-6.278,29.359,6.676,5.4,20.9,1.012,39.512-12.2,9.586-6.8,11.6-6.832,14.795-.2,5.813,12.072,27.291,17.583,42.992,11.031,7.935-3.312,21.667-11.6,31.431-18.96,12.866-9.7,14.539-9.265,10.315,2.71-8.1,22.951,8.06,24.7,38.615,4.175,7.028-4.723,9.088-5.122,10.25-1.994,7.982,21.537,38.683,23.157,54.965,2.9,3.626-4.511,4.3-4.81,11.96-5.3,11.094-.707,14.434-3.735,14.434-13.085,0-7.05-.5-7.614-4.4-4.96-5.982,4.078-11.692,2.611-10.044-2.58a13.106,13.106,0,0,0-.371-6.075c-.878-3.059-.514-4.76,1.869-8.692,10.633-17.568-14.3-34.8-37.263-25.761-13.944,5.492-28.334,23.518-31.266,39.17-1.464,7.826-27.126,24.459-30.157,19.549-.713-1.149,5.7-23.247,9.533-32.864.545-1.371,2.228-6.137,3.735-10.592a185.838,185.838,0,0,1,8.019-18.692c5.464-10.972,12.125-25.96,17.72-39.877,4.371-10.87,4.626-31.154.4-31.154a10.263,10.263,0,0,1-2.754-.6c-.913-.33-2.863.371-4.337,1.558m-617.343,4.9c-3.614.564-2.748-.938-18.96,32.817-11.427,23.786-11.838,24.434-18.153,28.487-7.352,4.717-8.776,8.022-6.464,15.019,1.863,5.648,1.67,6.312-7.415,25.459-13.82,29.119-19.979,42.743-19.979,44.185,0,2.069,16.969,1.975,18.281-.1.539-.857,5.53-11.371,11.085-23.365,11.935-25.761,12.01-25.811,20.107-13.474,3.29,5.013,6.3,9.393,6.686,9.736s2.442,3.147,4.564,6.231,7.007,9.393,10.851,14.019l6.991,8.411H250.49l-16-15.888c-8.8-8.739-17.9-18.692-20.225-22.119s-4.682-6.418-5.237-6.645a1.79,1.79,0,0,1-1.006-1.536c0-.614-2.723-5.193-6.05-10.175-9.87-14.776-9.832-14.658-5.645-18.01,1.978-1.579,4.094-2.879,4.7-2.882,4.645-.025,40.553-27.777,57.208-44.213,20.079-19.814,22.051-26.823,7.552-26.823h-6.561l-7.383,9.658c-11.069,14.483-32.637,34.113-40.553,36.914-3.788,1.336-1.91-4.418,7.9-24.216,11.533-23.281,11.359-24.035-4.994-21.487m305.631.611c-2.118,2.119-1.879,4.343.567,5.281,2.6,1,4.523-.813,3.96-3.72-.545-2.807-2.58-3.508-4.527-1.561m359.5,83.57c6.467,7.1,6.835,11.5,1.159,13.87-7.658,3.2-10.243,10.913-6.885,20.546,1.763,5.062-.648,9.075-7.577,12.611-21.468,10.951-27.951-23.281-8.063-42.556,8.4-8.14,16.484-9.832,21.365-4.471m-134.46,2.43c5.153,5.153-2.953,14.87-16.163,19.378-14.511,4.953-17.6,3.477-11.767-5.633,7.583-11.854,22.487-19.188,27.929-13.745M123.595,664.769c-2.651,1.069-1.738,4.175,2.785,9.461,2.442,2.851,6.293,10.1,8.795,16.558,5.932,15.306,8.284,17.437,19.054,17.247,14.948-.265,32.609-8.623,32.609-15.43,0-4.128-3.642-4.978-10.542-2.464-8.405,3.063-23.568,7.449-25.755,7.449-1.012,0-4.106-5.122-7.29-12.056q-11.089-24.183-19.655-20.764m782.878,7.7a37.1,37.1,0,0,0-7.477,6.81c-2.047,2.483-5.5,6.636-7.682,9.222l-3.963,4.7-14.106-2.826c-21.615-4.324-34.671-3.474-34.671,2.262,0,1.2.19,1.252,28.038,7.944,28.908,6.947,27.191,7.552,41.21-14.555,3.38-5.324,6.7-10.527,7.39-11.561,2.676-4.031-3.2-5.377-8.739-2" transform="translate(36.156 62.976)" fill="#cd7a98" stroke="#cd7a98" stroke-width="2" fill-rule="evenodd"/>
  </g>
</svg>
